<mxfile host="65bd71144e">
    <diagram id="93RceHGSjPdTyX5fZcqp" name="Page-1">
        <mxGraphModel dx="820" dy="574" grid="1" gridSize="10" guides="1" tooltips="1" connect="1" arrows="1" fold="1" page="1" pageScale="1" pageWidth="850" pageHeight="1100" math="0" shadow="0">
            <root>
                <mxCell id="0"/>
                <mxCell id="1" parent="0"/>
                <mxCell id="54" value="" style="edgeStyle=orthogonalEdgeStyle;html=1;align=left;spacingLeft=2;endArrow=none;rounded=0;" parent="1" source="2" target="53" edge="1">
                    <mxGeometry relative="1" as="geometry">
                        <mxPoint x="519.0714285714282" y="340" as="sourcePoint"/>
                        <Array as="points"/>
                        <mxPoint x="519.0714285714282" y="370" as="targetPoint"/>
                    </mxGeometry>
                </mxCell>
                <mxCell id="2" value="meh-web-app" style="shape=umlLifeline;perimeter=lifelinePerimeter;whiteSpace=wrap;html=1;container=1;collapsible=0;recursiveResize=0;outlineConnect=0;" parent="1" vertex="1">
                    <mxGeometry x="470" y="150" width="100" height="560" as="geometry"/>
                </mxCell>
                <mxCell id="3" value="meh-attendance-tracker-api" style="shape=umlLifeline;perimeter=lifelinePerimeter;whiteSpace=wrap;html=1;container=1;collapsible=0;recursiveResize=0;outlineConnect=0;" parent="1" vertex="1">
                    <mxGeometry x="710" y="150" width="100" height="560" as="geometry"/>
                </mxCell>
                <mxCell id="55" value="" style="html=1;points=[];perimeter=orthogonalPerimeter;" parent="3" vertex="1">
                    <mxGeometry x="45" y="70" width="10" height="450" as="geometry"/>
                </mxCell>
                <mxCell id="4" value="" style="shape=umlLifeline;participant=umlActor;perimeter=lifelinePerimeter;whiteSpace=wrap;html=1;container=1;collapsible=0;recursiveResize=0;verticalAlign=top;spacingTop=36;outlineConnect=0;" parent="1" vertex="1">
                    <mxGeometry x="70" y="150" width="20" height="560" as="geometry"/>
                </mxCell>
                <mxCell id="5" value="meh-telegram-bot" style="shape=umlLifeline;perimeter=lifelinePerimeter;whiteSpace=wrap;html=1;container=1;collapsible=0;recursiveResize=0;outlineConnect=0;" parent="1" vertex="1">
                    <mxGeometry x="260" y="150" width="100" height="560" as="geometry"/>
                </mxCell>
                <mxCell id="52" value="" style="html=1;points=[];perimeter=orthogonalPerimeter;" parent="5" vertex="1">
                    <mxGeometry x="45" y="50" width="10" height="100" as="geometry"/>
                </mxCell>
                <mxCell id="8" value="" style="edgeStyle=elbowEdgeStyle;fontSize=12;html=1;endArrow=blockThin;endFill=1;entryX=-0.08;entryY=0.196;entryDx=0;entryDy=0;entryPerimeter=0;" parent="1" source="4" target="52" edge="1">
                    <mxGeometry width="160" relative="1" as="geometry">
                        <mxPoint x="150" y="210" as="sourcePoint"/>
                        <mxPoint x="310" y="210" as="targetPoint"/>
                        <Array as="points">
                            <mxPoint x="200" y="220"/>
                            <mxPoint x="180" y="240"/>
                        </Array>
                    </mxGeometry>
                </mxCell>
                <mxCell id="9" value="Provide phone number" style="text;html=1;align=center;verticalAlign=middle;resizable=0;points=[];autosize=1;strokeColor=none;fillColor=none;" parent="1" vertex="1">
                    <mxGeometry x="125" y="200" width="140" height="20" as="geometry"/>
                </mxCell>
                <mxCell id="10" value="" style="edgeStyle=elbowEdgeStyle;fontSize=12;html=1;endArrow=blockThin;endFill=1;entryX=-0.063;entryY=0.047;entryDx=0;entryDy=0;entryPerimeter=0;exitX=1.144;exitY=0.399;exitDx=0;exitDy=0;exitPerimeter=0;" parent="1" source="52" target="55" edge="1">
                    <mxGeometry width="160" relative="1" as="geometry">
                        <mxPoint x="329.99888888888904" y="290" as="sourcePoint"/>
                        <mxPoint x="759.5" y="240" as="targetPoint"/>
                        <Array as="points">
                            <mxPoint x="420" y="240"/>
                            <mxPoint x="400.61" y="290"/>
                            <mxPoint x="380.61" y="310"/>
                        </Array>
                    </mxGeometry>
                </mxCell>
                <mxCell id="11" value="Fetch user data" style="text;html=1;align=center;verticalAlign=middle;resizable=0;points=[];autosize=1;strokeColor=none;fillColor=none;" parent="1" vertex="1">
                    <mxGeometry x="540" y="220" width="100" height="20" as="geometry"/>
                </mxCell>
                <mxCell id="19" value="Condition" style="shape=umlFrame;tabWidth=110;tabHeight=30;tabPosition=left;html=1;boundedLbl=1;labelInHeader=1;width=100;height=20;" parent="1" vertex="1">
                    <mxGeometry x="360" y="500" width="420" height="70" as="geometry"/>
                </mxCell>
                <mxCell id="20" value="[if student is under 18 y.o.]" style="text" parent="19" vertex="1">
                    <mxGeometry width="100" height="20" relative="1" as="geometry">
                        <mxPoint x="10" y="20" as="offset"/>
                    </mxGeometry>
                </mxCell>
                <mxCell id="36" value="Create student representative" style="text;html=1;align=center;verticalAlign=middle;resizable=0;points=[];autosize=1;strokeColor=none;fillColor=none;" parent="19" vertex="1">
                    <mxGeometry x="200" y="10" width="170" height="20" as="geometry"/>
                </mxCell>
                <mxCell id="22" value="" style="html=1;verticalAlign=bottom;endArrow=open;dashed=1;endSize=8;exitX=-0.3;exitY=0.118;exitDx=0;exitDy=0;exitPerimeter=0;entryX=1.085;entryY=0.689;entryDx=0;entryDy=0;entryPerimeter=0;" parent="1" source="55" target="52" edge="1">
                    <mxGeometry relative="1" as="geometry">
                        <mxPoint x="740" y="270" as="sourcePoint"/>
                        <mxPoint x="470" y="410" as="targetPoint"/>
                        <Array as="points">
                            <mxPoint x="470" y="270"/>
                        </Array>
                    </mxGeometry>
                </mxCell>
                <mxCell id="24" value="Link to registration form" style="text;html=1;align=center;verticalAlign=middle;resizable=0;points=[];autosize=1;strokeColor=none;fillColor=none;" parent="1" vertex="1">
                    <mxGeometry x="125" y="270" width="140" height="20" as="geometry"/>
                </mxCell>
                <mxCell id="25" value="" style="html=1;verticalAlign=bottom;endArrow=open;dashed=1;endSize=8;exitX=0;exitY=0.9;exitDx=0;exitDy=0;exitPerimeter=0;" parent="1" source="52" target="4" edge="1">
                    <mxGeometry relative="1" as="geometry">
                        <mxPoint x="504.51" y="290" as="sourcePoint"/>
                        <mxPoint x="124.99717948717944" y="290" as="targetPoint"/>
                        <Array as="points">
                            <mxPoint x="285.01" y="290"/>
                        </Array>
                    </mxGeometry>
                </mxCell>
                <mxCell id="26" value="" style="edgeStyle=elbowEdgeStyle;fontSize=12;html=1;endArrow=blockThin;endFill=1;entryX=0.04;entryY=0.027;entryDx=0;entryDy=0;entryPerimeter=0;" parent="1" source="4" target="53" edge="1">
                    <mxGeometry width="160" relative="1" as="geometry">
                        <mxPoint x="250" y="330" as="sourcePoint"/>
                        <mxPoint x="410" y="330" as="targetPoint"/>
                        <Array as="points">
                            <mxPoint x="290" y="320"/>
                            <mxPoint x="270" y="300"/>
                        </Array>
                    </mxGeometry>
                </mxCell>
                <mxCell id="27" value="Fulfill the form with data" style="text;html=1;align=center;verticalAlign=middle;resizable=0;points=[];autosize=1;strokeColor=none;fillColor=none;" parent="1" vertex="1">
                    <mxGeometry x="340" y="300" width="140" height="20" as="geometry"/>
                </mxCell>
                <mxCell id="31" value="validate data" style="edgeStyle=orthogonalEdgeStyle;html=1;align=left;spacingLeft=2;endArrow=block;rounded=0;startArrow=none;exitX=0.944;exitY=0.071;exitDx=0;exitDy=0;exitPerimeter=0;entryX=1.063;entryY=0.153;entryDx=0;entryDy=0;entryPerimeter=0;" parent="1" source="53" target="53" edge="1">
                    <mxGeometry relative="1" as="geometry">
                        <mxPoint x="600" y="340" as="sourcePoint"/>
                        <Array as="points">
                            <mxPoint x="600" y="338"/>
                            <mxPoint x="600" y="370"/>
                        </Array>
                        <mxPoint x="575" y="319.96" as="targetPoint"/>
                    </mxGeometry>
                </mxCell>
                <mxCell id="32" value="" style="edgeStyle=elbowEdgeStyle;fontSize=12;html=1;endArrow=blockThin;endFill=1;entryX=0.14;entryY=0.447;entryDx=0;entryDy=0;entryPerimeter=0;" parent="1" source="2" target="55" edge="1">
                    <mxGeometry width="160" relative="1" as="geometry">
                        <mxPoint x="540" y="449.13" as="sourcePoint"/>
                        <mxPoint x="740" y="420" as="targetPoint"/>
                        <Array as="points">
                            <mxPoint x="600" y="420"/>
                            <mxPoint x="640" y="400"/>
                            <mxPoint x="620" y="390"/>
                            <mxPoint x="600" y="370"/>
                        </Array>
                    </mxGeometry>
                </mxCell>
                <mxCell id="33" value="Create student" style="text;html=1;align=center;verticalAlign=middle;resizable=0;points=[];autosize=1;strokeColor=none;fillColor=none;" parent="1" vertex="1">
                    <mxGeometry x="590" y="400" width="90" height="20" as="geometry"/>
                </mxCell>
                <mxCell id="37" value="" style="edgeStyle=elbowEdgeStyle;fontSize=12;html=1;endArrow=blockThin;endFill=1;" parent="1" edge="1">
                    <mxGeometry width="160" relative="1" as="geometry">
                        <mxPoint x="519.6304347826087" y="530" as="sourcePoint"/>
                        <mxPoint x="759.4999999999998" y="530" as="targetPoint"/>
                        <Array as="points">
                            <mxPoint x="600" y="530"/>
                            <mxPoint x="620" y="540"/>
                            <mxPoint x="650" y="460"/>
                            <mxPoint x="630" y="450"/>
                            <mxPoint x="610" y="430"/>
                        </Array>
                    </mxGeometry>
                </mxCell>
                <mxCell id="38" value="" style="edgeStyle=elbowEdgeStyle;fontSize=12;html=1;endArrow=blockThin;endFill=1;" parent="1" target="55" edge="1">
                    <mxGeometry width="160" relative="1" as="geometry">
                        <mxPoint x="519.6304347826087" y="630" as="sourcePoint"/>
                        <mxPoint x="750" y="630" as="targetPoint"/>
                        <Array as="points">
                            <mxPoint x="640" y="630"/>
                            <mxPoint x="700" y="670"/>
                            <mxPoint x="610" y="599"/>
                            <mxPoint x="650" y="579"/>
                            <mxPoint x="630" y="569"/>
                            <mxPoint x="610" y="549"/>
                        </Array>
                    </mxGeometry>
                </mxCell>
                <mxCell id="39" value="Create &lt;br&gt;student's\student representative's &lt;br&gt;personal details" style="text;html=1;align=center;verticalAlign=middle;resizable=0;points=[];autosize=1;strokeColor=none;fillColor=none;" parent="1" vertex="1">
                    <mxGeometry x="540" y="575" width="190" height="50" as="geometry"/>
                </mxCell>
                <mxCell id="42" value="" style="html=1;verticalAlign=bottom;endArrow=open;dashed=1;endSize=8;entryX=1.181;entryY=0.901;entryDx=0;entryDy=0;entryPerimeter=0;exitX=-0.1;exitY=0.991;exitDx=0;exitDy=0;exitPerimeter=0;" parent="1" target="53" edge="1" source="55">
                    <mxGeometry relative="1" as="geometry">
                        <mxPoint x="759.5" y="660" as="sourcePoint"/>
                        <mxPoint x="525.0604347826088" y="660" as="targetPoint"/>
                        <Array as="points">
                            <mxPoint x="730.44" y="660"/>
                        </Array>
                    </mxGeometry>
                </mxCell>
                <mxCell id="43" value="" style="html=1;verticalAlign=bottom;endArrow=open;dashed=1;endSize=8;entryX=1.004;entryY=0.387;entryDx=0;entryDy=0;entryPerimeter=0;" parent="1" target="53" edge="1">
                    <mxGeometry relative="1" as="geometry">
                        <mxPoint x="759.5" y="460" as="sourcePoint"/>
                        <mxPoint x="520.0604347826088" y="460" as="targetPoint"/>
                        <Array as="points">
                            <mxPoint x="725.44" y="460"/>
                        </Array>
                    </mxGeometry>
                </mxCell>
                <mxCell id="44" value="Student entity" style="text;html=1;align=center;verticalAlign=middle;resizable=0;points=[];autosize=1;strokeColor=none;fillColor=none;" parent="1" vertex="1">
                    <mxGeometry x="590" y="440" width="90" height="20" as="geometry"/>
                </mxCell>
                <mxCell id="47" value="" style="html=1;verticalAlign=bottom;endArrow=open;dashed=1;endSize=8;entryX=1.122;entryY=0.644;entryDx=0;entryDy=0;entryPerimeter=0;" parent="1" target="53" edge="1">
                    <mxGeometry relative="1" as="geometry">
                        <mxPoint x="759.5" y="560" as="sourcePoint"/>
                        <mxPoint x="520.0004347826089" y="560" as="targetPoint"/>
                        <Array as="points">
                            <mxPoint x="725.8100000000001" y="560"/>
                        </Array>
                    </mxGeometry>
                </mxCell>
                <mxCell id="53" value="" style="html=1;points=[];perimeter=orthogonalPerimeter;" parent="1" vertex="1">
                    <mxGeometry x="515" y="310" width="10" height="390" as="geometry"/>
                </mxCell>
                <mxCell id="48" value="Student representative entity" style="text;html=1;align=center;verticalAlign=middle;resizable=0;points=[];autosize=1;strokeColor=none;fillColor=none;" parent="1" vertex="1">
                    <mxGeometry x="555" y="540" width="170" height="20" as="geometry"/>
                </mxCell>
                <mxCell id="49" value="Personal details entity" style="text;html=1;align=center;verticalAlign=middle;resizable=0;points=[];autosize=1;strokeColor=none;fillColor=none;" parent="1" vertex="1">
                    <mxGeometry x="580" y="640" width="130" height="20" as="geometry"/>
                </mxCell>
                <mxCell id="51" value="Registration status" style="html=1;verticalAlign=bottom;endArrow=open;dashed=1;endSize=8;exitX=-0.12;exitY=0.974;exitDx=0;exitDy=0;exitPerimeter=0;" parent="1" source="53" target="4" edge="1">
                    <mxGeometry relative="1" as="geometry">
                        <mxPoint x="470" y="560" as="sourcePoint"/>
                        <mxPoint x="390" y="560" as="targetPoint"/>
                        <Array as="points">
                            <mxPoint x="290" y="690"/>
                        </Array>
                    </mxGeometry>
                </mxCell>
                <mxCell id="56" value="User" style="text;html=1;align=center;verticalAlign=middle;resizable=0;points=[];autosize=1;strokeColor=none;fillColor=none;" vertex="1" parent="1">
                    <mxGeometry x="60" y="130" width="40" height="20" as="geometry"/>
                </mxCell>
            </root>
        </mxGraphModel>
    </diagram>
</mxfile>